#!OML:ASF H:\ManfredETheater\Project 1\Capture day 1\Session 1\subject.ASF
:FULLY-SPECIFIED
:DEGREES
76
root 0.586327 17.1531 32.6653 -175.089 -5.78363 178.336
lowerback 4.8373 -0.833506 -3.8673
upperback -3.11473 -1.35204 1.83915
thorax -5.83278 -0.492907 4.23005
lowerneck -19.2607 -0.116602 -1.86214
upperneck 26.3285 -0.123339 -1.16814
head 11.8317 -0.752039 -0.213268
rclavicle -1.22439e-014 -2.10712e-014
rhumerus -35.4135 -11.0827 -77.1067
rradius 30.7741
rwrist 1.71976
rhand -20.1495 -12.2434
rfingers 7.12502
rthumb 6.1955 -42.1328
lclavicle -1.22439e-014 -2.10712e-014
lhumerus -36.1716 5.15973 84.2592
lradius 32.7009
lwrist -14.2708
lhand -8.85235 9.37645
lfingers 7.12502
lthumb 17.0886 38.6449
rfemur -31.0058 -2.71447 15.378
rtibia 35.7667
rfoot -5.92108 -5.76143
rtoes 11.8814
lfemur -10.6994 -4.73339 -25.5054
ltibia 32.0972
lfoot -22.7804 -0.65831
ltoes 9.26263
77
root 0.585549 17.152 32.6622 -175.071 -5.75296 178.34
lowerback 4.83397 -0.832224 -3.88081
upperback -3.11003 -1.35102 1.83809
thorax -5.8258 -0.492068 4.23628
lowerneck -19.2496 -0.114858 -1.85895
upperneck 26.3126 -0.122019 -1.16607
head 11.8233 -0.750252 -0.212569
rclavicle -1.15047e-014 -1.43125e-014
rhumerus -35.429 -11.0938 -77.1141
rradius 30.7659
rwrist 1.72763
rhand -20.1565 -12.2431
rfingers 7.12502
rthumb 6.1887 -42.1327
lclavicle -1.15047e-014 -1.43125e-014
lhumerus -36.1841 5.13991 84.2716
lradius 32.7086
lwrist -14.2557
lhand -8.85199 9.3698
lfingers 7.12502
lthumb 17.0889 38.6382
rfemur -31.042 -2.72253 15.3886
rtibia 35.8026
rfoot -5.94204 -5.7279
rtoes 11.8979
lfemur -10.7125 -4.71821 -25.5059
ltibia 32.1074
lfoot -22.806 -0.634746
ltoes 9.25853
78
root 0.584798 17.1508 32.659 -175.054 -5.72088 178.345
lowerback 4.83018 -0.830551 -3.8914
upperback -3.10266 -1.34916 1.83615
thorax -5.81588 -0.491039 4.23978
lowerneck -19.2412 -0.11332 -1.85469
upperneck 26.2959 -0.121145 -1.16335
head 11.8151 -0.748336 -0.211856
rclavicle 1.39149e-015 -2.0276e-014
rhumerus -35.441 -11.1077 -77.1229
rradius 30.7556
rwrist 1.73659
rhand -20.165 -12.2403
rfingers 7.12502
rthumb 6.18054 -42.1301
lclavicle 1.39149e-015 -2.0276e-014
lhumerus -36.1924 5.11792 84.2831
lradius 32.7162
lwrist -14.244
lhand -8.84281 9.36789
lfingers 7.12502
lthumb 17.0977 38.6355
rfemur -31.0788 -2.73099 15.4009
rtibia 35.84
rfoot -5.96257 -5.6916
rtoes 11.9075
lfemur -10.7249 -4.70548 -25.5056
ltibia 32.1182
lfoot -22.8314 -0.606158
ltoes 9.24939
79
root 0.584074 17.1497 32.6556 -175.038 -5.69242 178.35
lowerback 4.82521 -0.829855 -3.89882
upperback -3.08979 -1.34813 1.83299
thorax -5.79947 -0.490763 4.24012
lowerneck -19.2417 -0.112771 -1.84965
upperneck 26.2782 -0.121039 -1.16016
head 11.8083 -0.746321 -0.211196
rclavicle 1.68905e-014 -1.15295e-014
rhumerus -35.4447 -11.1271 -77.1333
rradius 30.7435
rwrist 1.74731
rhand -20.1712 -12.2371
rfingers 7.12502
rthumb 6.1745 -42.1271
lclavicle 1.68905e-014 -1.15295e-014
lhumerus -36.1934 5.0941 84.2942
lradius 32.725
lwrist -14.2355
lhand -8.82509 9.37333
lfingers 7.12502
lthumb 17.1148 38.6395
rfemur -31.1128 -2.74118 15.4134
rtibia 35.8785
rfoot -5.9843 -5.65619
rtoes 11.9162
lfemur -10.7346 -4.6967 -25.5048
ltibia 32.1292
lfoot -22.857 -0.577079
ltoes 9.23982
80
root 0.583355 17.1485 32.652 -175.023 -5.66377 178.357
lowerback 4.82056 -0.828583 -3.90172
upperback -3.07415 -1.34593 1.82884
thorax -5.78051 -0.490184 4.2367
lowerneck -19.2459 -0.113266 -1.84459
upperneck 26.2597 -0.122412 -1.15529
head 11.802 -0.74457 -0.210123
rclavicle 3.93221e-015 -2.3059e-014
rhumerus -35.4464 -11.1517 -77.1439
rradius 30.7312
rwrist 1.75837
rhand -20.1731 -12.2266
rfingers 7.12502
rthumb 6.1727 -42.1166
lclavicle 3.93221e-015 -2.3059e-014
lhumerus -36.1913 5.06741 84.3048
lradius 32.7345
lwrist -14.2279
lhand -8.80503 9.38326
lfingers 7.12502
lthumb 17.1341 38.6478
rfemur -31.1459 -2.75203 15.4285
rtibia 35.9177
rfoot -6.00544 -5.61944
rtoes 11.9177
lfemur -10.7425 -4.69074 -25.5022
ltibia 32.1401
lfoot -22.8827 -0.544822
ltoes 9.22703
81
root 0.582593 17.1474 32.6483 -175.01 -5.63733 178.366
lowerback 4.81508 -0.827481 -3.89976
upperback -3.05351 -1.34338 1.82374
thorax -5.75592 -0.489822 4.22935
lowerneck -19.2588 -0.114536 -1.83918
upperneck 26.24 -0.1244 -1.14893
head 11.7969 -0.742552 -0.208622
rclavicle 8.71547e-015 -3.97569e-016
rhumerus -35.441 -11.1799 -77.1563
rradius 30.719
rwrist 1.76991
rhand -20.1722 -12.2208
rfingers 7.12502
rthumb 6.17354 -42.1109
lclavicle 8.71547e-015 -3.97569e-016
lhumerus -36.182 5.04155 84.3144
lradius 32.744
lwrist -14.2231
lhand -8.78496 9.39881
lfingers 7.12502
lthumb 17.1534 38.6616
rfemur -31.1767 -2.76541 15.4455
rtibia 35.9575
rfoot -6.02801 -5.58151
rtoes 11.9153
lfemur -10.7479 -4.68902 -25.4979
ltibia 32.1507
lfoot -22.909 -0.511157
ltoes 9.21804
82
root 0.581775 17.1463 32.6442 -174.997 -5.6139 178.373
lowerback 4.81101 -0.826822 -3.89761
upperback -3.03105 -1.34142 1.81737
thorax -5.7302 -0.489803 4.22061
lowerneck -19.2759 -0.116663 -1.83326
upperneck 26.2202 -0.127339 -1.14254
head 11.7926 -0.740781 -0.207339
rclavicle 6.09399e-015 1.11319e-014
rhumerus -35.4333 -11.2108 -77.1685
rradius 30.7065
rwrist 1.78082
rhand -20.1685 -12.2169
rfingers 7.12502
rthumb 6.17716 -42.1069
lclavicle 6.09399e-015 1.11319e-014
lhumerus -36.1666 5.01826 84.3227
lradius 32.7488
lwrist -14.2198
lhand -8.77217 9.40987
lfingers 7.12502
lthumb 17.1657 38.6716
rfemur -31.2061 -2.78214 15.4602
rtibia 35.9979
rfoot -6.05172 -5.54291
rtoes 11.9038
lfemur -10.7516 -4.69165 -25.4961
ltibia 32.1607
lfoot -22.935 -0.475717
ltoes 9.20719
